<svg width="20" height="20" viewBox="0 0 20 20" xmlns="http://www.w3.org/2000/svg" name="social_instagram"><path d="M9.929 0C7.232 0 6.894.012 5.836.06 4.778.11 4.058.276 3.426.52a4.85 4.85 0 0 0-1.76 1.146A4.823 4.823 0 0 0 .522 3.425C.276 4.058.108 4.778.06 5.835.01 6.896 0 7.233 0 9.93c0 2.696.012 3.034.06 4.093.05 1.057.216 1.778.461 2.41a4.85 4.85 0 0 0 1.146 1.758 4.822 4.822 0 0 0 1.758 1.146c.633.246 1.353.413 2.41.462 1.06.05 1.397.06 4.094.06 2.696 0 3.034-.013 4.093-.06 1.057-.05 1.778-.216 2.41-.462a4.85 4.85 0 0 0 1.758-1.146 4.823 4.823 0 0 0 1.146-1.758c.246-.633.413-1.353.462-2.41.05-1.059.06-1.397.06-4.093 0-2.697-.013-3.035-.06-4.093-.05-1.058-.216-1.779-.462-2.41a4.85 4.85 0 0 0-1.146-1.76A4.824 4.824 0 0 0 16.432.522c-.633-.245-1.353-.413-2.41-.461C12.963.01 12.625 0 9.929 0zm0 1.787c2.65 0 2.966.013 4.012.06.968.044 1.493.206 1.843.342.464.18.794.395 1.142.742.347.348.562.678.742 1.142.136.35.298.875.342 1.843.048 1.048.059 1.362.059 4.013 0 2.65-.013 2.966-.062 4.012-.05.968-.211 1.493-.348 1.843a3.152 3.152 0 0 1-.744 1.142 3.109 3.109 0 0 1-1.142.742c-.348.136-.881.298-1.85.342-1.054.048-1.365.059-4.02.059-2.656 0-2.967-.013-4.022-.062-.968-.05-1.501-.211-1.849-.348a3.09 3.09 0 0 1-1.142-.744 3.037 3.037 0 0 1-.744-1.142c-.137-.348-.298-.881-.348-1.85-.037-1.042-.05-1.365-.05-4.008 0-2.644.013-2.966.05-4.021.05-.968.211-1.502.348-1.85.174-.471.397-.794.744-1.141.348-.348.67-.571 1.142-.745.348-.136.869-.298 1.837-.347 1.055-.038 1.365-.05 4.021-.05l.039.026zm0 3.043a5.098 5.098 0 1 0-.001 10.196 5.098 5.098 0 0 0 0-10.196zm0 8.409a3.31 3.31 0 1 1 0-6.62 3.31 3.31 0 0 1 0 6.62zm6.49-8.61a1.192 1.192 0 1 1-2.383 0 1.192 1.192 0 0 1 2.383 0z"></path></svg>