<svg width="365" height="365" viewBox="0 0 365 365" fill="none" xmlns="http://www.w3.org/2000/svg">
<path d="M335.121 69.3496C333.513 78.8652 326.458 87.3408 317.492 91.0036C310.935 93.6845 305.586 94.6988 300.78 94.5825C301.426 94.9249 302.078 95.2349 302.731 95.5515C305.256 96.7466 307.873 97.7156 310.605 98.2647C313.332 98.8267 316.187 98.9107 319.003 98.4133C316.284 99.2595 313.357 99.5567 310.463 99.3435C307.569 99.1433 304.694 98.4391 301.93 97.5799C282.071 91.4429 268.983 81.4751 255.178 77.444C237.575 72.3083 217.956 81.5074 207.387 96.4171C201.554 104.647 197.988 114.311 196.114 124.208C195.223 128.937 194.68 133.808 192.69 138.201C190.727 142.568 185.688 147.09 180.487 147.122C175.294 147.083 170.268 142.568 168.297 138.201C166.308 133.808 165.771 128.937 164.874 124.208C163 114.311 159.428 104.647 153.601 96.4171C143.039 81.5074 123.407 72.3083 105.816 77.444C92.0109 81.4815 78.9099 91.4429 59.0583 97.5799C56.2805 98.4391 53.4251 99.1368 50.5246 99.3435C47.6176 99.5502 44.7041 99.2595 41.978 98.4133C44.7945 98.9107 47.6563 98.8267 50.3824 98.2647C53.115 97.7156 55.7249 96.7466 58.2572 95.5515C58.9097 95.2349 59.5622 94.9249 60.2082 94.5825C55.3954 94.7052 50.0401 93.691 43.4896 91.0036C34.536 87.3408 27.4752 78.8652 25.8602 69.3496C24.3033 81.2425 28.6961 93.775 37.3655 102.121C46.0284 110.455 58.7546 114.428 70.654 112.483C80.4797 110.881 89.5754 106.165 99.4399 104.796C106.43 103.82 112.257 104.705 117.121 107.244C116.12 105.842 115.021 104.518 113.807 103.265C111.753 101.152 109.363 99.2983 106.74 97.8577C104.104 96.4042 101.204 95.3835 98.1673 94.8538C101.242 95.0153 104.304 95.7001 107.205 96.8693C110.093 98.0451 112.825 99.6794 115.286 101.663C119.879 105.364 129.033 111.469 137.748 154.777C139.137 161.709 140.19 169.151 152.037 185.85C154.227 188.925 151.973 190.746 149.46 187.865C148.213 186.431 146.96 184.991 145.752 183.453C145.687 183.376 145.636 183.305 145.584 183.227C145.435 183.453 145.274 183.679 145.106 183.899C141.366 188.757 131.411 190.895 134.343 198.796C135.312 201.406 136.501 203.815 136.986 206.567C137.418 208.893 137.173 211.18 137.044 213.518C136.889 216.277 137.509 218.744 138.82 221.18C139.88 223.15 140.959 223.764 143.116 224.352C145.649 225.03 148.853 224.397 151.23 225.385C156.243 227.465 156.153 234.462 155.397 238.848C154.757 242.485 152.677 246.006 152.974 249.778C153.174 252.227 154.395 254.455 155.59 256.6C159.512 263.616 163.42 270.651 167.328 277.679C167.522 276.142 167.71 274.598 167.884 273.067C168.007 271.949 168.123 270.838 168.226 269.714L168.427 263.9C168.356 261.736 168.084 259.559 167.264 257.511C168.595 259.817 169.176 262.517 169.551 265.16C169.893 267.828 169.996 270.502 170.067 273.151C170.138 275.819 169.932 278.5 170.248 281.071C171.127 288.196 174.286 292.111 178.181 293.015C177.219 288.487 178.084 283.609 180.487 279.643C182.91 283.609 183.769 288.487 182.813 293.015C186.696 292.111 189.867 288.196 190.746 281.071C191.056 278.5 190.856 275.825 190.92 273.151C190.998 270.502 191.095 267.821 191.457 265.16C191.812 262.517 192.4 259.817 193.737 257.511C192.904 259.559 192.639 261.736 192.568 263.9L192.781 269.714C192.897 270.838 192.994 271.949 193.117 273.067C193.285 274.598 193.485 276.142 193.666 277.679C197.574 270.651 201.489 263.616 205.404 256.6C206.599 254.449 207.82 252.22 208.014 249.778C208.324 246.006 206.237 242.478 205.598 238.848C204.842 234.455 204.751 227.465 209.758 225.385C212.148 224.397 215.339 225.03 217.872 224.352C220.042 223.77 221.115 223.15 222.168 221.18C223.472 218.738 224.099 216.277 223.944 213.518C223.808 211.18 223.576 208.893 224.002 206.567C224.493 203.815 225.682 201.412 226.638 198.796C229.584 190.889 219.629 188.757 215.882 183.899C215.701 183.679 215.552 183.453 215.404 183.227C215.346 183.311 215.288 183.376 215.236 183.453C214.021 184.984 212.775 186.431 211.528 187.865C209.008 190.746 206.754 188.931 208.944 185.85C220.785 169.151 221.838 161.715 223.24 154.777C231.954 111.469 241.102 105.364 245.708 101.663C248.163 99.6794 250.895 98.0386 253.783 96.8693C256.69 95.7001 259.752 95.0153 262.814 94.8538C259.797 95.3835 256.884 96.4042 254.255 97.8577C251.606 99.3048 249.235 101.159 247.174 103.265C245.96 104.518 244.862 105.842 243.867 107.244C248.705 104.705 254.558 103.82 261.535 104.796C271.393 106.172 280.495 110.888 290.321 112.483C302.24 114.428 314.953 110.455 323.616 102.121C332.279 93.775 336.685 81.249 335.115 69.3496" fill="#54565A"/>
<path fill-rule="evenodd" clip-rule="evenodd" d="M175.451 155.235V190.384L133.377 156.734C132.602 156.159 131.872 155.675 131.142 155.429C130.463 155.145 129.695 155.035 128.965 155.035C127.317 155.035 126.006 155.487 125.037 156.398C124.068 157.309 123.635 158.517 123.635 160.055V203.705H133.519V168.504L175.451 202.497C176.911 203.705 178.507 204.273 180.206 204.273C181.711 204.273 182.971 203.847 183.933 202.917C184.857 202.058 185.341 200.85 185.341 199.261V155.235H175.451ZM25.6172 155.629H36.0372V203.698H25.6172V155.629ZM74.8261 182.774V175.733V175.726H112.243V203.698H76.228C72.0548 203.698 68.224 203.065 64.6774 201.767C61.1955 200.507 58.1399 198.827 55.5236 196.657C52.9073 194.441 50.9176 191.883 49.4705 188.847C48.0041 185.856 47.2806 182.684 47.2806 179.157C47.2806 175.629 48.0041 172.393 49.4705 169.505C50.9176 166.618 52.9073 164.105 55.5236 162.083C58.1399 160.015 61.189 158.42 64.6774 157.309C68.2305 156.204 72.0548 155.629 76.228 155.629H108.509V164.008H76.228C73.56 164.008 71.0858 164.395 68.8054 165.164C66.5315 165.939 64.587 166.992 62.9462 168.394C61.2989 169.744 60.0391 171.392 59.1218 173.265C58.1399 175.151 57.7071 177.264 57.7071 179.531C57.7071 181.799 58.1399 183.872 59.1218 185.797C60.0391 187.781 61.2989 189.422 62.9462 190.81C64.587 192.212 66.5315 193.272 68.8054 194.086C71.0793 194.874 73.56 195.248 76.228 195.248H101.732V182.774H74.8261ZM198.03 155.629H208.45V203.698H198.03V155.629ZM217.918 155.629V164.008H240.509V203.698H250.935V164.008H273.571V155.629H217.918ZM292.855 164.014V195.255H292.861H335.807V203.704H282.48V155.635H335.704V164.014H292.855ZM333.475 182.774H300.464V175.732H333.475V182.774Z" fill="white"/>
</svg>
