<svg width="30" height="16" viewBox="0 0 30 16" xmlns="http://www.w3.org/2000/svg" name="social_vkontakte"><path d="M15.096 15.46h1.725c.292-.027.57-.137.798-.316.166-.195.257-.44.258-.693-.051-.462.02-.928.204-1.357.184-.428.477-.803.851-1.092 1.056-.308 2.446 2.06 3.888 2.97.565.401 1.26.593 1.957.54l3.888-.052s2.035-.113 1.082-1.573a12.186 12.186 0 0 0-2.91-3.05c-2.446-2.065-2.111-1.73.824-5.3 1.802-2.177 2.523-3.506 2.292-4.072a1.767 1.767 0 0 0-.712-.373 1.8 1.8 0 0 0-.808-.023l-4.402.023c-.194-.021-.39.01-.567.092a1.175 1.175 0 0 0-.386.424 22.211 22.211 0 0 1-1.622 3.117c-1.957 3.005-2.73 3.178-3.064 2.99a3.188 3.188 0 0 1-.593-1.285 3.143 3.143 0 0 1 .026-1.407c0-2.925.515-4.147-.927-4.462a8.23 8.23 0 0 0-2.06-.188 10.48 10.48 0 0 0-3.656.338c-.49.223-.876.721-.644.751.497.034.965.245 1.313.591.294.558.436 1.18.412 1.806 0 0 .284 3.445-.592 3.873-.592.293-1.39-.305-3.141-3.045a23.54 23.54 0 0 1-1.57-2.954 1.178 1.178 0 0 0-.361-.446 1.96 1.96 0 0 0-.67-.25l-4.171.027a1.577 1.577 0 0 0-.876.25.734.734 0 0 0 0 .68 42.822 42.822 0 0 0 6.952 10.451 10.58 10.58 0 0 0 7.262 3.005v.01z"></path></svg>